<mxfile host="app.diagrams.net" modified="2024-06-16T08:04:14.182Z" agent="Mozilla/5.0 (Windows NT 10.0; Win64; x64) AppleWebKit/537.36 (KHTML, like Gecko) Chrome/125.0.0.0 Safari/537.36" etag="QVVXK8djp9Z1Ufj5NxPx" version="24.5.4" type="device">
  <diagram name="Strona-1" id="jpaMvelVWF1Mh6sMr1HV">
    <mxGraphModel dx="2520" dy="2734" grid="1" gridSize="10" guides="1" tooltips="1" connect="1" arrows="1" fold="1" page="1" pageScale="1" pageWidth="827" pageHeight="1169" math="0" shadow="0">
      <root>
        <mxCell id="0" />
        <mxCell id="1" parent="0" />
        <mxCell id="wmRTawZfQHPGaK_FYvVi-120" value="" style="rounded=0;whiteSpace=wrap;html=1;fillColor=#f5f5f5;fontColor=#333333;strokeColor=#666666;opacity=80;strokeWidth=3;fontFamily=Verdana;fontStyle=1;fontSize=12;" vertex="1" parent="1">
          <mxGeometry x="490" y="-750" width="2020" height="650" as="geometry" />
        </mxCell>
        <mxCell id="wmRTawZfQHPGaK_FYvVi-121" value="GOODMAN-KRUSKALL" style="rounded=1;whiteSpace=wrap;html=1;fontSize=16;fontFamily=Verdana;fillColor=#d5e8d4;strokeColor=#82b366;strokeWidth=3;opacity=80;fontStyle=1" vertex="1" parent="1">
          <mxGeometry x="2090" y="-390" width="170" height="40" as="geometry" />
        </mxCell>
        <mxCell id="wmRTawZfQHPGaK_FYvVi-122" value="PEARSON" style="rounded=1;whiteSpace=wrap;html=1;fontSize=16;fontFamily=Verdana;fillColor=#d5e8d4;strokeColor=#82b366;strokeWidth=3;opacity=80;fontStyle=1" vertex="1" parent="1">
          <mxGeometry x="2090" y="-540" width="170" height="30" as="geometry" />
        </mxCell>
        <mxCell id="wmRTawZfQHPGaK_FYvVi-123" value="KENDALL-TAU" style="rounded=1;whiteSpace=wrap;html=1;fontSize=16;fontFamily=Verdana;fillColor=#d5e8d4;strokeColor=#82b366;strokeWidth=3;opacity=80;fontStyle=1" vertex="1" parent="1">
          <mxGeometry x="2280" y="-590" width="170" height="30" as="geometry" />
        </mxCell>
        <mxCell id="wmRTawZfQHPGaK_FYvVi-124" value="SPEARMAN" style="rounded=1;whiteSpace=wrap;html=1;fontSize=16;fontFamily=Verdana;fillColor=#d5e8d4;strokeColor=#82b366;strokeWidth=3;opacity=80;fontStyle=1" vertex="1" parent="1">
          <mxGeometry x="2280" y="-541.25" width="170" height="30" as="geometry" />
        </mxCell>
        <mxCell id="wmRTawZfQHPGaK_FYvVi-125" value="WEIGHTED SPEARMAN" style="rounded=1;whiteSpace=wrap;html=1;fontSize=16;fontFamily=Verdana;fillColor=#d5e8d4;strokeColor=#82b366;strokeWidth=3;opacity=80;fontStyle=1" vertex="1" parent="1">
          <mxGeometry x="2090" y="-497.5" width="170" height="41.25" as="geometry" />
        </mxCell>
        <mxCell id="wmRTawZfQHPGaK_FYvVi-126" value="WS RANK SIMILARITY" style="rounded=1;whiteSpace=wrap;html=1;fontSize=16;fontFamily=Verdana;fillColor=#d5e8d4;strokeColor=#82b366;strokeWidth=3;opacity=80;fontStyle=1" vertex="1" parent="1">
          <mxGeometry x="2280" y="-497.5" width="170" height="41.25" as="geometry" />
        </mxCell>
        <mxCell id="wmRTawZfQHPGaK_FYvVi-127" value="GRADED MEAN AVERAGE" style="rounded=1;whiteSpace=wrap;html=1;fontFamily=Verdana;fontSize=16;strokeWidth=3;fillColor=#daffe7;strokeColor=#5E6E63;fontStyle=1" vertex="1" parent="1">
          <mxGeometry x="1320" y="-200" width="170" height="40" as="geometry" />
        </mxCell>
        <mxCell id="wmRTawZfQHPGaK_FYvVi-128" value="MEAN AREA" style="rounded=1;whiteSpace=wrap;html=1;fontFamily=Verdana;fontSize=16;strokeWidth=3;fillColor=#daffe7;strokeColor=#5E6E63;fontStyle=1" vertex="1" parent="1">
          <mxGeometry x="1700" y="-250" width="170" height="30" as="geometry" />
        </mxCell>
        <mxCell id="wmRTawZfQHPGaK_FYvVi-129" value="MEAN" style="rounded=1;whiteSpace=wrap;html=1;fontFamily=Verdana;fontSize=16;strokeWidth=3;fillColor=#daffe7;strokeColor=#5E6E63;fontStyle=1" vertex="1" parent="1">
          <mxGeometry x="1510" y="-250" width="170" height="30" as="geometry" />
        </mxCell>
        <mxCell id="wmRTawZfQHPGaK_FYvVi-130" value="WEIGHTED MEAN" style="rounded=1;whiteSpace=wrap;html=1;fontFamily=Verdana;fontSize=16;strokeWidth=3;fillColor=#daffe7;strokeColor=#5E6E63;fontStyle=1" vertex="1" parent="1">
          <mxGeometry x="1890" y="-250" width="170" height="30" as="geometry" />
        </mxCell>
        <mxCell id="wmRTawZfQHPGaK_FYvVi-131" value="DRASTIC WS" style="rounded=1;whiteSpace=wrap;html=1;fontSize=16;fontFamily=Verdana;fillColor=#d5e8d4;strokeColor=#82b366;strokeWidth=3;opacity=80;fontStyle=1" vertex="1" parent="1">
          <mxGeometry x="2090" y="-589" width="170" height="30" as="geometry" />
        </mxCell>
        <mxCell id="wmRTawZfQHPGaK_FYvVi-132" value="WEIGHTS SIMILARITY" style="rounded=1;whiteSpace=wrap;html=1;fontSize=16;fontFamily=Verdana;fillColor=#d5e8d4;strokeColor=#82b366;strokeWidth=3;opacity=80;fontStyle=1" vertex="1" parent="1">
          <mxGeometry x="2280" y="-443.75" width="170" height="43.75" as="geometry" />
        </mxCell>
        <mxCell id="wmRTawZfQHPGaK_FYvVi-133" value="WEIGHTS SIMILARITY 2" style="rounded=1;whiteSpace=wrap;html=1;fontSize=16;fontFamily=Verdana;fillColor=#d5e8d4;strokeColor=#82b366;strokeWidth=3;opacity=80;fontStyle=1" vertex="1" parent="1">
          <mxGeometry x="2090" y="-443.75" width="170" height="43.75" as="geometry" />
        </mxCell>
        <mxCell id="wmRTawZfQHPGaK_FYvVi-134" value="BISECTOR" style="rounded=1;whiteSpace=wrap;html=1;fontFamily=Verdana;fontSize=16;strokeWidth=3;fillColor=#daffe7;strokeColor=#5E6E63;fontStyle=1" vertex="1" parent="1">
          <mxGeometry x="1320" y="-250" width="170" height="30" as="geometry" />
        </mxCell>
        <mxCell id="wmRTawZfQHPGaK_FYvVi-135" value="HEIGHT" style="rounded=1;whiteSpace=wrap;html=1;fontFamily=Verdana;fontSize=16;strokeWidth=3;fillColor=#daffe7;strokeColor=#5E6E63;fontStyle=1" vertex="1" parent="1">
          <mxGeometry x="1890" y="-200" width="170" height="40" as="geometry" />
        </mxCell>
        <mxCell id="wmRTawZfQHPGaK_FYvVi-136" value="LARGEST OF MAXIMUM" style="rounded=1;whiteSpace=wrap;html=1;fontFamily=Verdana;fontSize=16;strokeWidth=3;fillColor=#daffe7;strokeColor=#5E6E63;fontStyle=1" vertex="1" parent="1">
          <mxGeometry x="1510" y="-200" width="170" height="40" as="geometry" />
        </mxCell>
        <mxCell id="wmRTawZfQHPGaK_FYvVi-137" value="LOWEST OF MINIMUM" style="rounded=1;whiteSpace=wrap;html=1;fontFamily=Verdana;fontSize=16;strokeWidth=3;fillColor=#daffe7;strokeColor=#5E6E63;fontStyle=1" vertex="1" parent="1">
          <mxGeometry x="1700" y="-200" width="170" height="40" as="geometry" />
        </mxCell>
        <mxCell id="wmRTawZfQHPGaK_FYvVi-138" value="EUCLIDEAN" style="rounded=1;whiteSpace=wrap;html=1;fontFamily=Verdana;fontSize=16;fillColor=#e6d8e0;strokeColor=#6E6E6E;opacity=80;strokeWidth=3;fontColor=#333333;fontStyle=1" vertex="1" parent="1">
          <mxGeometry x="1320" y="-445.6199999999999" width="170" height="30" as="geometry" />
        </mxCell>
        <mxCell id="wmRTawZfQHPGaK_FYvVi-139" value="CANBERRA" style="rounded=1;whiteSpace=wrap;html=1;fontFamily=Verdana;fontSize=16;fillColor=#e6d8e0;strokeColor=#6E6E6E;opacity=80;strokeWidth=3;fontColor=#333333;fontStyle=1" vertex="1" parent="1">
          <mxGeometry x="1320" y="-395.6199999999999" width="170" height="30" as="geometry" />
        </mxCell>
        <mxCell id="wmRTawZfQHPGaK_FYvVi-140" value="HAMMING" style="rounded=1;whiteSpace=wrap;html=1;fontFamily=Verdana;fontSize=16;fillColor=#e6d8e0;strokeColor=#6E6E6E;opacity=80;strokeWidth=3;fontColor=#333333;fontStyle=1" vertex="1" parent="1">
          <mxGeometry x="1510" y="-445.6199999999999" width="170" height="30" as="geometry" />
        </mxCell>
        <mxCell id="wmRTawZfQHPGaK_FYvVi-141" value="MAHDAVI" style="rounded=1;whiteSpace=wrap;html=1;fontFamily=Verdana;fontSize=16;fillColor=#e6d8e0;strokeColor=#6E6E6E;opacity=80;strokeWidth=3;fontColor=#333333;fontStyle=1" vertex="1" parent="1">
          <mxGeometry x="1510" y="-396.8699999999999" width="170" height="30" as="geometry" />
        </mxCell>
        <mxCell id="wmRTawZfQHPGaK_FYvVi-142" value="VERTEX" style="rounded=1;whiteSpace=wrap;html=1;fontFamily=Verdana;fontSize=16;fillColor=#e6d8e0;strokeColor=#6E6E6E;opacity=80;strokeWidth=3;fontColor=#333333;fontStyle=1" vertex="1" parent="1">
          <mxGeometry x="1700" y="-396.8699999999999" width="170" height="30" as="geometry" />
        </mxCell>
        <mxCell id="wmRTawZfQHPGaK_FYvVi-143" value="WEIGHTED&amp;nbsp;&lt;div&gt;HAMMING&lt;/div&gt;" style="rounded=1;whiteSpace=wrap;html=1;fontFamily=Verdana;fontSize=16;fillColor=#e6d8e0;strokeColor=#6E6E6E;opacity=80;strokeWidth=3;fontColor=#333333;fontStyle=1" vertex="1" parent="1">
          <mxGeometry x="1320" y="-350.63" width="170" height="40.63" as="geometry" />
        </mxCell>
        <mxCell id="wmRTawZfQHPGaK_FYvVi-144" value="L-R" style="rounded=1;whiteSpace=wrap;html=1;fontFamily=Verdana;fontSize=16;fillColor=#e6d8e0;strokeColor=#6E6E6E;opacity=80;strokeWidth=3;fontColor=#333333;fontStyle=1" vertex="1" parent="1">
          <mxGeometry x="1700" y="-445.6199999999999" width="170" height="30" as="geometry" />
        </mxCell>
        <mxCell id="wmRTawZfQHPGaK_FYvVi-145" value="TRAN DUCKSTEIN" style="rounded=1;whiteSpace=wrap;html=1;fontFamily=Verdana;fontSize=16;fillColor=#e6d8e0;strokeColor=#6E6E6E;opacity=80;strokeWidth=3;fontColor=#333333;fontStyle=1" vertex="1" parent="1">
          <mxGeometry x="1890" y="-445.6199999999999" width="170" height="30" as="geometry" />
        </mxCell>
        <mxCell id="wmRTawZfQHPGaK_FYvVi-146" value="WEIGHTED EUCLIDEAN" style="rounded=1;whiteSpace=wrap;html=1;fontFamily=Verdana;fontSize=16;fillColor=#e6d8e0;strokeColor=#6E6E6E;opacity=80;strokeWidth=3;fontColor=#333333;fontStyle=1" vertex="1" parent="1">
          <mxGeometry x="1510" y="-350.63" width="170" height="38.44" as="geometry" />
        </mxCell>
        <mxCell id="wmRTawZfQHPGaK_FYvVi-147" value="CHEBYSHEV" style="rounded=1;whiteSpace=wrap;html=1;fontFamily=Verdana;fontSize=16;fillColor=#e6d8e0;strokeColor=#6E6E6E;opacity=80;strokeWidth=3;fontColor=#333333;fontStyle=1" vertex="1" parent="1">
          <mxGeometry x="1890" y="-397.4999999999999" width="170" height="30" as="geometry" />
        </mxCell>
        <mxCell id="wmRTawZfQHPGaK_FYvVi-148" value="ENHANCED ACCURACY" style="rounded=1;whiteSpace=wrap;html=1;fontFamily=Verdana;fontSize=16;fillColor=#f8cecc;strokeColor=#b85450;strokeWidth=3;opacity=80;fontStyle=1" vertex="1" parent="1">
          <mxGeometry x="1320" y="-680" width="170" height="40" as="geometry" />
        </mxCell>
        <mxCell id="wmRTawZfQHPGaK_FYvVi-149" value="LINEAR" style="rounded=1;whiteSpace=wrap;html=1;fontFamily=Verdana;fontSize=16;fillColor=#f8cecc;strokeColor=#b85450;strokeWidth=3;opacity=80;fontStyle=1" vertex="1" parent="1">
          <mxGeometry x="1320" y="-630" width="170" height="30" as="geometry" />
        </mxCell>
        <mxCell id="wmRTawZfQHPGaK_FYvVi-150" value="LOGARITHM" style="rounded=1;whiteSpace=wrap;html=1;fontFamily=Verdana;fontSize=16;fillColor=#f8cecc;strokeColor=#b85450;strokeWidth=3;opacity=80;fontStyle=1" vertex="1" parent="1">
          <mxGeometry x="1510" y="-680" width="170" height="40" as="geometry" />
        </mxCell>
        <mxCell id="wmRTawZfQHPGaK_FYvVi-151" value="MAX" style="rounded=1;whiteSpace=wrap;html=1;fontFamily=Verdana;fontSize=16;fillColor=#f8cecc;strokeColor=#b85450;strokeWidth=3;opacity=80;fontStyle=1" vertex="1" parent="1">
          <mxGeometry x="1510" y="-630" width="170" height="30" as="geometry" />
        </mxCell>
        <mxCell id="wmRTawZfQHPGaK_FYvVi-152" value="MIN-MAX" style="rounded=1;whiteSpace=wrap;html=1;fontFamily=Verdana;fontSize=16;fillColor=#f8cecc;strokeColor=#b85450;strokeWidth=3;opacity=80;fontStyle=1" vertex="1" parent="1">
          <mxGeometry x="1320" y="-582.5" width="170" height="30" as="geometry" />
        </mxCell>
        <mxCell id="wmRTawZfQHPGaK_FYvVi-153" value="NONLINEAR" style="rounded=1;whiteSpace=wrap;html=1;fontFamily=Verdana;fontSize=16;fillColor=#f8cecc;strokeColor=#b85450;strokeWidth=3;opacity=80;fontStyle=1" vertex="1" parent="1">
          <mxGeometry x="1510" y="-582.5" width="170" height="30" as="geometry" />
        </mxCell>
        <mxCell id="wmRTawZfQHPGaK_FYvVi-154" value="SAW" style="rounded=1;whiteSpace=wrap;html=1;fontFamily=Verdana;fontSize=16;fillColor=#f8cecc;strokeColor=#b85450;strokeWidth=3;opacity=80;fontStyle=1" vertex="1" parent="1">
          <mxGeometry x="1890" y="-582.5" width="170" height="30" as="geometry" />
        </mxCell>
        <mxCell id="wmRTawZfQHPGaK_FYvVi-155" value="SUM" style="rounded=1;whiteSpace=wrap;html=1;fontFamily=Verdana;fontSize=16;fillColor=#f8cecc;strokeColor=#b85450;strokeWidth=3;opacity=80;fontStyle=1" vertex="1" parent="1">
          <mxGeometry x="1890" y="-630" width="170" height="30" as="geometry" />
        </mxCell>
        <mxCell id="wmRTawZfQHPGaK_FYvVi-156" value="VECTOR" style="rounded=1;whiteSpace=wrap;html=1;fontFamily=Verdana;fontSize=16;fillColor=#f8cecc;strokeColor=#b85450;strokeWidth=3;opacity=80;fontStyle=1" vertex="1" parent="1">
          <mxGeometry x="1320" y="-536.25" width="170" height="30" as="geometry" />
        </mxCell>
        <mxCell id="wmRTawZfQHPGaK_FYvVi-157" value="ZAVADSKAS TURSKIS" style="rounded=1;whiteSpace=wrap;html=1;fontFamily=Verdana;fontSize=16;fillColor=#f8cecc;strokeColor=#b85450;strokeWidth=3;opacity=80;fontStyle=1" vertex="1" parent="1">
          <mxGeometry x="1890" y="-680" width="170" height="40" as="geometry" />
        </mxCell>
        <mxCell id="wmRTawZfQHPGaK_FYvVi-158" value="SQUARE ROOT" style="rounded=1;whiteSpace=wrap;html=1;fontFamily=Verdana;fontSize=16;fillColor=#f8cecc;strokeColor=#b85450;strokeWidth=3;opacity=80;fontStyle=1" vertex="1" parent="1">
          <mxGeometry x="1700" y="-680" width="170" height="40" as="geometry" />
        </mxCell>
        <mxCell id="wmRTawZfQHPGaK_FYvVi-159" value="WASPAS" style="rounded=1;whiteSpace=wrap;html=1;fontFamily=Verdana;fontSize=16;fillColor=#f8cecc;strokeColor=#b85450;strokeWidth=3;opacity=80;fontStyle=1" vertex="1" parent="1">
          <mxGeometry x="1700" y="-582.5" width="170" height="30" as="geometry" />
        </mxCell>
        <mxCell id="wmRTawZfQHPGaK_FYvVi-160" value="COCOSO" style="rounded=1;whiteSpace=wrap;html=1;fontFamily=Verdana;fontSize=16;fillColor=#f8cecc;strokeColor=#b85450;strokeWidth=3;opacity=80;fontStyle=1" vertex="1" parent="1">
          <mxGeometry x="1700" y="-630" width="170" height="30" as="geometry" />
        </mxCell>
        <mxCell id="wmRTawZfQHPGaK_FYvVi-161" value="INPUT (USER)" style="rounded=1;whiteSpace=wrap;html=1;fontFamily=Verdana;fontSize=16;fillColor=#fff2cc;strokeColor=#d6b656;strokeWidth=3;opacity=80;fontStyle=1" vertex="1" parent="1">
          <mxGeometry x="540" y="-680" width="170" height="30" as="geometry" />
        </mxCell>
        <mxCell id="wmRTawZfQHPGaK_FYvVi-162" value="FILE" style="rounded=1;whiteSpace=wrap;html=1;fontFamily=Verdana;fontSize=16;fillColor=#fff2cc;strokeColor=#d6b656;strokeWidth=3;opacity=80;fontStyle=1" vertex="1" parent="1">
          <mxGeometry x="730" y="-680" width="170" height="30" as="geometry" />
        </mxCell>
        <mxCell id="wmRTawZfQHPGaK_FYvVi-163" value="RANDOM" style="rounded=1;whiteSpace=wrap;html=1;fontFamily=Verdana;fontSize=16;fillColor=#fff2cc;strokeColor=#d6b656;strokeWidth=3;opacity=80;fontStyle=1" vertex="1" parent="1">
          <mxGeometry x="920" y="-680" width="170" height="30" as="geometry" />
        </mxCell>
        <mxCell id="wmRTawZfQHPGaK_FYvVi-164" value="ANGLE" style="rounded=1;whiteSpace=wrap;html=1;fontFamily=Verdana;fontSize=16;fillColor=#ffe6cc;strokeColor=#d79b00;strokeWidth=3;opacity=80;fontStyle=1" vertex="1" parent="1">
          <mxGeometry x="540" y="-590" width="170" height="30" as="geometry" />
        </mxCell>
        <mxCell id="wmRTawZfQHPGaK_FYvVi-165" value="CRITIC" style="rounded=1;whiteSpace=wrap;html=1;fontFamily=Verdana;fontSize=16;fillColor=#ffe6cc;strokeColor=#d79b00;strokeWidth=3;opacity=80;fontStyle=1" vertex="1" parent="1">
          <mxGeometry x="730" y="-589" width="170" height="30" as="geometry" />
        </mxCell>
        <mxCell id="wmRTawZfQHPGaK_FYvVi-166" value="CILOS" style="rounded=1;whiteSpace=wrap;html=1;fontFamily=Verdana;fontSize=16;fillColor=#ffe6cc;strokeColor=#d79b00;strokeWidth=3;opacity=80;fontStyle=1" vertex="1" parent="1">
          <mxGeometry x="920" y="-589" width="170" height="30" as="geometry" />
        </mxCell>
        <mxCell id="wmRTawZfQHPGaK_FYvVi-167" value="ENTROPY" style="rounded=1;whiteSpace=wrap;html=1;fontFamily=Verdana;fontSize=16;fillColor=#ffe6cc;strokeColor=#d79b00;strokeWidth=3;opacity=80;fontStyle=1" vertex="1" parent="1">
          <mxGeometry x="540" y="-536.25" width="170" height="30" as="geometry" />
        </mxCell>
        <mxCell id="wmRTawZfQHPGaK_FYvVi-168" value="EQUAL" style="rounded=1;whiteSpace=wrap;html=1;fontFamily=Verdana;fontSize=16;fillColor=#ffe6cc;strokeColor=#d79b00;strokeWidth=3;opacity=80;fontStyle=1" vertex="1" parent="1">
          <mxGeometry x="1110" y="-589" width="170" height="30" as="geometry" />
        </mxCell>
        <mxCell id="wmRTawZfQHPGaK_FYvVi-169" value="GINI" style="rounded=1;whiteSpace=wrap;html=1;fontFamily=Verdana;fontSize=16;fillColor=#ffe6cc;strokeColor=#d79b00;strokeWidth=3;opacity=80;fontStyle=1" vertex="1" parent="1">
          <mxGeometry x="540" y="-486.25" width="170" height="30" as="geometry" />
        </mxCell>
        <mxCell id="wmRTawZfQHPGaK_FYvVi-170" value="IDOCRIW" style="rounded=1;whiteSpace=wrap;html=1;fontFamily=Verdana;fontSize=16;fillColor=#ffe6cc;strokeColor=#d79b00;strokeWidth=3;opacity=80;fontStyle=1" vertex="1" parent="1">
          <mxGeometry x="1110" y="-536.25" width="170" height="30" as="geometry" />
        </mxCell>
        <mxCell id="wmRTawZfQHPGaK_FYvVi-171" value="INPUT (USER)" style="rounded=1;whiteSpace=wrap;html=1;fontFamily=Verdana;fontSize=16;fillColor=#ffe6cc;strokeColor=#d79b00;strokeWidth=3;opacity=80;fontStyle=1" vertex="1" parent="1">
          <mxGeometry x="920" y="-486.25" width="170" height="30" as="geometry" />
        </mxCell>
        <mxCell id="wmRTawZfQHPGaK_FYvVi-172" value="MEREC" style="rounded=1;whiteSpace=wrap;html=1;fontFamily=Verdana;fontSize=16;fillColor=#ffe6cc;strokeColor=#d79b00;strokeWidth=3;opacity=80;fontStyle=1" vertex="1" parent="1">
          <mxGeometry x="920" y="-536.25" width="170" height="30" as="geometry" />
        </mxCell>
        <mxCell id="wmRTawZfQHPGaK_FYvVi-173" value="STD" style="rounded=1;whiteSpace=wrap;html=1;fontFamily=Verdana;fontSize=16;fillColor=#ffe6cc;strokeColor=#d79b00;strokeWidth=3;opacity=80;fontStyle=1" vertex="1" parent="1">
          <mxGeometry x="730" y="-486.25" width="170" height="30" as="geometry" />
        </mxCell>
        <mxCell id="wmRTawZfQHPGaK_FYvVi-174" value="VARIANCE" style="rounded=1;whiteSpace=wrap;html=1;fontFamily=Verdana;fontSize=16;fillColor=#ffe6cc;strokeColor=#d79b00;strokeWidth=3;opacity=80;fontStyle=1" vertex="1" parent="1">
          <mxGeometry x="730" y="-536.25" width="170" height="30" as="geometry" />
        </mxCell>
        <mxCell id="wmRTawZfQHPGaK_FYvVi-175" value="RANK" style="rounded=1;whiteSpace=wrap;html=1;fontFamily=Verdana;fontSize=16;fillColor=#b0e3e6;strokeColor=#0e8088;opacity=80;strokeWidth=3;fontStyle=1" vertex="1" parent="1">
          <mxGeometry x="2090" y="-680" width="170" height="30" as="geometry" />
        </mxCell>
        <mxCell id="wmRTawZfQHPGaK_FYvVi-176" value="INPUT (USER)" style="rounded=1;whiteSpace=wrap;html=1;fontFamily=Verdana;fontSize=16;fillColor=#b0e3e6;strokeColor=#0e8088;opacity=80;strokeWidth=3;fontStyle=1" vertex="1" parent="1">
          <mxGeometry x="2280" y="-680" width="170" height="30" as="geometry" />
        </mxCell>
        <mxCell id="wmRTawZfQHPGaK_FYvVi-177" value="ARAS" style="rounded=1;whiteSpace=wrap;html=1;fontFamily=Verdana;fontSize=16;fillColor=#dae8fc;strokeColor=#6c8ebf;strokeWidth=3;opacity=80;fontStyle=1" vertex="1" parent="1">
          <mxGeometry x="540" y="-397.5" width="170" height="30" as="geometry" />
        </mxCell>
        <mxCell id="wmRTawZfQHPGaK_FYvVi-178" value="CODAS" style="rounded=1;whiteSpace=wrap;html=1;fontFamily=Verdana;fontSize=16;fillColor=#dae8fc;strokeColor=#6c8ebf;strokeWidth=3;opacity=80;fontStyle=1" vertex="1" parent="1">
          <mxGeometry x="540" y="-347.5" width="170" height="30" as="geometry" />
        </mxCell>
        <mxCell id="wmRTawZfQHPGaK_FYvVi-179" value="COCOSO" style="rounded=1;whiteSpace=wrap;html=1;fontFamily=Verdana;fontSize=16;fillColor=#dae8fc;strokeColor=#6c8ebf;strokeWidth=3;opacity=80;fontStyle=1" vertex="1" parent="1">
          <mxGeometry x="730" y="-397.5" width="170" height="30" as="geometry" />
        </mxCell>
        <mxCell id="wmRTawZfQHPGaK_FYvVi-180" value="COMET" style="rounded=1;whiteSpace=wrap;html=1;fontFamily=Verdana;fontSize=16;fillColor=#dae8fc;strokeColor=#6c8ebf;strokeWidth=3;opacity=80;fontStyle=1" vertex="1" parent="1">
          <mxGeometry x="730" y="-348.75" width="170" height="30" as="geometry" />
        </mxCell>
        <mxCell id="wmRTawZfQHPGaK_FYvVi-181" value="COPRAS" style="rounded=1;whiteSpace=wrap;html=1;fontFamily=Verdana;fontSize=16;fillColor=#dae8fc;strokeColor=#6c8ebf;strokeWidth=3;opacity=80;fontStyle=1" vertex="1" parent="1">
          <mxGeometry x="540" y="-300" width="170" height="30" as="geometry" />
        </mxCell>
        <mxCell id="wmRTawZfQHPGaK_FYvVi-182" value="EDAS" style="rounded=1;whiteSpace=wrap;html=1;fontFamily=Verdana;fontSize=16;fillColor=#dae8fc;strokeColor=#6c8ebf;strokeWidth=3;opacity=80;fontStyle=1" vertex="1" parent="1">
          <mxGeometry x="730" y="-300" width="170" height="30" as="geometry" />
        </mxCell>
        <mxCell id="wmRTawZfQHPGaK_FYvVi-183" value="MABAC" style="rounded=1;whiteSpace=wrap;html=1;fontFamily=Verdana;fontSize=16;fillColor=#dae8fc;strokeColor=#6c8ebf;strokeWidth=3;opacity=80;fontStyle=1" vertex="1" parent="1">
          <mxGeometry x="920" y="-397.5" width="170" height="30" as="geometry" />
        </mxCell>
        <mxCell id="wmRTawZfQHPGaK_FYvVi-184" value="MAIRCA" style="rounded=1;whiteSpace=wrap;html=1;fontFamily=Verdana;fontSize=16;fillColor=#dae8fc;strokeColor=#6c8ebf;strokeWidth=3;opacity=80;fontStyle=1" vertex="1" parent="1">
          <mxGeometry x="1110" y="-397.5" width="170" height="30" as="geometry" />
        </mxCell>
        <mxCell id="wmRTawZfQHPGaK_FYvVi-185" value="MARCOS" style="rounded=1;whiteSpace=wrap;html=1;fontFamily=Verdana;fontSize=16;fillColor=#dae8fc;strokeColor=#6c8ebf;strokeWidth=3;opacity=80;fontStyle=1" vertex="1" parent="1">
          <mxGeometry x="920" y="-347.5" width="170" height="30" as="geometry" />
        </mxCell>
        <mxCell id="wmRTawZfQHPGaK_FYvVi-186" value="MOORA" style="rounded=1;whiteSpace=wrap;html=1;fontFamily=Verdana;fontSize=16;fillColor=#dae8fc;strokeColor=#6c8ebf;strokeWidth=3;opacity=80;fontStyle=1" vertex="1" parent="1">
          <mxGeometry x="1110" y="-348.75" width="170" height="30" as="geometry" />
        </mxCell>
        <mxCell id="wmRTawZfQHPGaK_FYvVi-187" value="OCRA" style="rounded=1;whiteSpace=wrap;html=1;fontFamily=Verdana;fontSize=16;fillColor=#dae8fc;strokeColor=#6c8ebf;strokeWidth=3;opacity=80;fontStyle=1" vertex="1" parent="1">
          <mxGeometry x="920" y="-300" width="170" height="30" as="geometry" />
        </mxCell>
        <mxCell id="wmRTawZfQHPGaK_FYvVi-188" value="PROMETHEE" style="rounded=1;whiteSpace=wrap;html=1;fontFamily=Verdana;fontSize=16;fillColor=#dae8fc;strokeColor=#6c8ebf;strokeWidth=3;opacity=80;fontStyle=1" vertex="1" parent="1">
          <mxGeometry x="1110" y="-300" width="170" height="30" as="geometry" />
        </mxCell>
        <mxCell id="wmRTawZfQHPGaK_FYvVi-189" value="SPOTIS" style="rounded=1;whiteSpace=wrap;html=1;fontFamily=Verdana;fontSize=16;fillColor=#dae8fc;strokeColor=#6c8ebf;strokeWidth=3;opacity=80;fontStyle=1" vertex="1" parent="1">
          <mxGeometry x="540" y="-250" width="170" height="30" as="geometry" />
        </mxCell>
        <mxCell id="wmRTawZfQHPGaK_FYvVi-190" value="VIKOR" style="rounded=1;whiteSpace=wrap;html=1;fontFamily=Verdana;fontSize=16;fillColor=#dae8fc;strokeColor=#6c8ebf;strokeWidth=3;opacity=80;fontStyle=1" vertex="1" parent="1">
          <mxGeometry x="920" y="-250" width="170" height="30" as="geometry" />
        </mxCell>
        <mxCell id="wmRTawZfQHPGaK_FYvVi-191" value="WASPAS" style="rounded=1;whiteSpace=wrap;html=1;fontFamily=Verdana;fontSize=16;fillColor=#dae8fc;strokeColor=#6c8ebf;strokeWidth=3;opacity=80;fontStyle=1" vertex="1" parent="1">
          <mxGeometry x="1110" y="-250" width="170" height="30" as="geometry" />
        </mxCell>
        <mxCell id="wmRTawZfQHPGaK_FYvVi-192" value="TOPSIS" style="rounded=1;whiteSpace=wrap;html=1;fontFamily=Verdana;fontSize=16;fillColor=#dae8fc;strokeColor=#6c8ebf;strokeWidth=3;opacity=80;fontStyle=1" vertex="1" parent="1">
          <mxGeometry x="730" y="-250" width="170" height="30" as="geometry" />
        </mxCell>
        <mxCell id="wmRTawZfQHPGaK_FYvVi-193" value="WPM" style="rounded=1;whiteSpace=wrap;html=1;fontFamily=Verdana;fontSize=16;fillColor=#dae8fc;strokeColor=#6c8ebf;strokeWidth=3;opacity=80;fontStyle=1" vertex="1" parent="1">
          <mxGeometry x="540" y="-200" width="170" height="30" as="geometry" />
        </mxCell>
        <mxCell id="wmRTawZfQHPGaK_FYvVi-194" value="WSM" style="rounded=1;whiteSpace=wrap;html=1;fontFamily=Verdana;fontSize=16;fillColor=#dae8fc;strokeColor=#6c8ebf;strokeWidth=3;opacity=80;fontStyle=1" vertex="1" parent="1">
          <mxGeometry x="730" y="-200" width="170" height="30" as="geometry" />
        </mxCell>
        <mxCell id="wmRTawZfQHPGaK_FYvVi-195" value="PROBID" style="rounded=1;whiteSpace=wrap;html=1;fontFamily=Verdana;fontSize=16;fillColor=#dae8fc;strokeColor=#6c8ebf;strokeWidth=3;opacity=80;fontStyle=1" vertex="1" parent="1">
          <mxGeometry x="920" y="-200" width="170" height="30" as="geometry" />
        </mxCell>
        <mxCell id="wmRTawZfQHPGaK_FYvVi-196" value="ERVD" style="rounded=1;whiteSpace=wrap;html=1;fontFamily=Verdana;fontSize=16;fillColor=#dae8fc;strokeColor=#6c8ebf;strokeWidth=3;opacity=80;fontStyle=1" vertex="1" parent="1">
          <mxGeometry x="1110" y="-200" width="170" height="30" as="geometry" />
        </mxCell>
        <mxCell id="wmRTawZfQHPGaK_FYvVi-197" value="RIM" style="rounded=1;whiteSpace=wrap;html=1;fontFamily=Verdana;fontSize=16;fillColor=#dae8fc;strokeColor=#6c8ebf;strokeWidth=3;opacity=80;fontStyle=1" vertex="1" parent="1">
          <mxGeometry x="540" y="-155" width="170" height="30" as="geometry" />
        </mxCell>
        <mxCell id="wmRTawZfQHPGaK_FYvVi-198" value="INPUT (USER)" style="rounded=1;whiteSpace=wrap;html=1;fontFamily=Verdana;fontSize=16;fillColor=#dae8fc;strokeColor=#6c8ebf;strokeWidth=3;opacity=80;fontStyle=1" vertex="1" parent="1">
          <mxGeometry x="730" y="-155" width="170" height="30" as="geometry" />
        </mxCell>
        <mxCell id="wmRTawZfQHPGaK_FYvVi-199" value="WEIGHTS DISTRIBUTION" style="rounded=1;whiteSpace=wrap;html=1;fontFamily=Verdana;fontSize=16;fillColor=#e1d5e7;strokeColor=#9673a6;strokeWidth=3;opacity=80;fontStyle=1" vertex="1" parent="1">
          <mxGeometry x="2090" y="-205" width="170" height="40" as="geometry" />
        </mxCell>
        <mxCell id="wmRTawZfQHPGaK_FYvVi-200" value="RANKING BAR" style="rounded=1;whiteSpace=wrap;html=1;fontFamily=Verdana;fontSize=16;fillColor=#e1d5e7;strokeColor=#9673a6;strokeWidth=3;opacity=80;fontStyle=1" vertex="1" parent="1">
          <mxGeometry x="2090" y="-250" width="170" height="30" as="geometry" />
        </mxCell>
        <mxCell id="wmRTawZfQHPGaK_FYvVi-201" value="POLAR WEIGHTS" style="rounded=1;whiteSpace=wrap;html=1;fontFamily=Verdana;fontSize=16;fillColor=#e1d5e7;strokeColor=#9673a6;strokeWidth=3;opacity=80;fontStyle=1" vertex="1" parent="1">
          <mxGeometry x="2280" y="-296.87" width="170" height="30" as="geometry" />
        </mxCell>
        <mxCell id="wmRTawZfQHPGaK_FYvVi-202" value="RANKING FLOW" style="rounded=1;whiteSpace=wrap;html=1;fontFamily=Verdana;fontSize=16;fillColor=#e1d5e7;strokeColor=#9673a6;strokeWidth=3;opacity=80;fontStyle=1" vertex="1" parent="1">
          <mxGeometry x="2280" y="-250" width="170" height="30" as="geometry" />
        </mxCell>
        <mxCell id="wmRTawZfQHPGaK_FYvVi-203" value="POLAR RANKING" style="rounded=1;whiteSpace=wrap;html=1;fontFamily=Verdana;fontSize=16;fillColor=#e1d5e7;strokeColor=#9673a6;strokeWidth=3;opacity=80;fontStyle=1" vertex="1" parent="1">
          <mxGeometry x="2090" y="-296.87" width="170" height="30" as="geometry" />
        </mxCell>
        <mxCell id="wmRTawZfQHPGaK_FYvVi-204" value="SCATTER RANKING" style="rounded=1;whiteSpace=wrap;html=1;fontFamily=Verdana;fontSize=16;fillColor=#e1d5e7;strokeColor=#9673a6;strokeWidth=3;opacity=80;fontStyle=1" vertex="1" parent="1">
          <mxGeometry x="2280" y="-205.63" width="170" height="40.63" as="geometry" />
        </mxCell>
        <mxCell id="wmRTawZfQHPGaK_FYvVi-205" value="CORRELATION HEATMAP" style="rounded=1;whiteSpace=wrap;html=1;fontFamily=Verdana;fontSize=16;fillColor=#e1d5e7;strokeColor=#9673a6;strokeWidth=3;opacity=80;fontStyle=1" vertex="1" parent="1">
          <mxGeometry x="2090" y="-153.12" width="170" height="43.12" as="geometry" />
        </mxCell>
        <mxCell id="wmRTawZfQHPGaK_FYvVi-206" value="CORRELATION FLOW" style="rounded=1;whiteSpace=wrap;html=1;fontFamily=Verdana;fontSize=16;fillColor=#e1d5e7;strokeColor=#9673a6;strokeWidth=3;opacity=80;fontStyle=1" vertex="1" parent="1">
          <mxGeometry x="2280" y="-153.12" width="170" height="43.12" as="geometry" />
        </mxCell>
        <mxCell id="wmRTawZfQHPGaK_FYvVi-207" value="MACIERZ DECYZYJNA" style="text;html=1;strokeColor=none;fillColor=none;align=left;verticalAlign=middle;whiteSpace=wrap;rounded=0;fontFamily=Verdana;spacingLeft=10;fontStyle=1;fontSize=18;" vertex="1" parent="1">
          <mxGeometry x="530" y="-720" width="290" height="30" as="geometry" />
        </mxCell>
        <mxCell id="wmRTawZfQHPGaK_FYvVi-208" value="METODY WYZNACZANIA WAG KRYTERIÓW" style="text;html=1;strokeColor=none;fillColor=none;align=left;verticalAlign=middle;whiteSpace=wrap;rounded=0;fontFamily=Verdana;spacingLeft=10;fontStyle=1;fontSize=18;" vertex="1" parent="1">
          <mxGeometry x="530" y="-630" width="480" height="30" as="geometry" />
        </mxCell>
        <mxCell id="wmRTawZfQHPGaK_FYvVi-209" value="METODY WIELOKRYTERIALNE" style="text;html=1;strokeColor=none;fillColor=none;align=left;verticalAlign=middle;whiteSpace=wrap;rounded=0;fontFamily=Verdana;spacingLeft=10;fontStyle=1;fontSize=18;" vertex="1" parent="1">
          <mxGeometry x="530" y="-440" width="350" height="30" as="geometry" />
        </mxCell>
        <mxCell id="wmRTawZfQHPGaK_FYvVi-210" value="METODY NORMALIZACJI" style="text;html=1;strokeColor=none;fillColor=none;align=left;verticalAlign=middle;whiteSpace=wrap;rounded=0;fontFamily=Verdana;spacingLeft=10;fontStyle=1;fontSize=18;" vertex="1" parent="1">
          <mxGeometry x="1320" y="-720" width="310" height="30" as="geometry" />
        </mxCell>
        <mxCell id="wmRTawZfQHPGaK_FYvVi-211" value="METRYKI ODLEGŁOŚCI" style="text;html=1;strokeColor=none;fillColor=none;align=left;verticalAlign=middle;whiteSpace=wrap;rounded=0;fontFamily=Verdana;spacingLeft=10;fontStyle=1;fontSize=18;" vertex="1" parent="1">
          <mxGeometry x="1320" y="-486.25" width="270" height="30" as="geometry" />
        </mxCell>
        <mxCell id="wmRTawZfQHPGaK_FYvVi-212" value="METODY DEFUZYFIKACJI" style="text;html=1;strokeColor=none;fillColor=none;align=left;verticalAlign=middle;whiteSpace=wrap;rounded=0;fontFamily=Verdana;spacingLeft=10;fontStyle=1;fontSize=18;" vertex="1" parent="1">
          <mxGeometry x="1320" y="-290" width="360" height="30" as="geometry" />
        </mxCell>
        <mxCell id="wmRTawZfQHPGaK_FYvVi-213" value="WSPÓŁCZYNNIKI KORELACJI" style="text;html=1;strokeColor=none;fillColor=none;align=left;verticalAlign=middle;whiteSpace=wrap;rounded=0;fontFamily=Verdana;spacingLeft=10;fontStyle=1;fontSize=18;" vertex="1" parent="1">
          <mxGeometry x="2090" y="-630" width="360" height="30" as="geometry" />
        </mxCell>
        <mxCell id="wmRTawZfQHPGaK_FYvVi-214" value="METODY WIZUALIZACJI" style="text;html=1;strokeColor=none;fillColor=none;align=left;verticalAlign=middle;whiteSpace=wrap;rounded=0;fontFamily=Verdana;spacingLeft=10;fontStyle=1;fontSize=18;" vertex="1" parent="1">
          <mxGeometry x="2090" y="-340" width="320" height="30" as="geometry" />
        </mxCell>
        <mxCell id="wmRTawZfQHPGaK_FYvVi-215" value="RANKING" style="text;html=1;strokeColor=none;fillColor=none;align=left;verticalAlign=middle;whiteSpace=wrap;rounded=0;fontFamily=Verdana;spacingLeft=10;fontStyle=1;fontSize=18;" vertex="1" parent="1">
          <mxGeometry x="2090" y="-720" width="270" height="30" as="geometry" />
        </mxCell>
      </root>
    </mxGraphModel>
  </diagram>
</mxfile>
